# Blender v2.80 (sub 47) OBJ File: 'Nightstand.blend'
# www.blender.org
mtllib Nightstand.mtl
o nightstand_Cube.001
v 0.712216 0.000000 -1.000000
v 0.712216 0.000000 1.000000
v -0.712216 0.000000 1.000000
v -0.712216 0.000000 -1.000000
v 0.712217 1.754109 -0.999999
v 0.712216 1.754109 1.000000
v -0.712217 1.754109 1.000000
v -0.712216 1.754109 -1.000000
v 0.600000 1.754109 -1.000000
v -0.600000 1.754109 -1.000000
v 0.600000 1.612004 -1.000000
v -0.600000 1.612004 -1.000000
v 0.600000 1.212004 -1.000000
v -0.600000 1.212004 -1.000000
v 0.600000 1.057895 -1.000000
v -0.600000 1.057895 -1.000000
v 0.600000 1.057895 1.000000
v -0.600000 1.057895 1.000000
v 0.600000 1.212004 1.000000
v -0.600000 1.212004 1.000000
v 0.599999 1.612004 1.000000
v -0.600000 1.612004 1.000000
v 0.600000 0.302419 1.000000
v -0.600000 0.302419 1.000000
v 0.600000 0.302419 -1.000000
v -0.600000 0.302419 -1.000000
v 0.789176 1.746819 -1.108056
v 0.789175 1.746819 1.108057
v -0.789176 1.746819 -1.108056
v -0.789176 1.746819 1.108056
v -0.758592 1.896339 -1.065114
v 0.758592 1.896339 -1.065114
v 0.758592 1.896339 1.065115
v -0.758592 1.896339 1.065114
vt 0.773755 0.919810
vt 0.535128 0.588570
vt 0.773755 0.588570
vt 0.122148 0.834359
vt 0.108759 0.936729
vt 0.122148 0.805258
vt 0.478238 0.070257
vt 0.251634 0.308884
vt 0.251634 0.070257
vt 0.857249 0.340775
vt 0.838862 0.567379
vt 0.838862 0.340775
vt 0.947387 0.567379
vt 0.947388 0.340775
vt 0.983470 0.319585
vt 0.535128 0.919810
vt 0.791136 0.567379
vt 0.774181 0.340775
vt 0.791136 0.340775
vt 0.535128 0.319585
vt 0.620899 0.308884
vt 0.478238 0.308884
vt 0.990165 0.308884
vt 0.847503 0.070257
vt 0.990165 0.070257
vt 0.847503 0.308884
vt 0.983470 0.966243
vt 0.774181 0.588570
vt 0.983470 0.588570
vt 0.278713 0.936729
vt 0.265324 0.909894
vt 0.265324 0.834359
vt 0.242971 0.521063
vt 0.233748 0.122986
vt 0.242972 0.143391
vt 0.053440 0.583187
vt 0.030869 0.562736
vt 0.219188 0.562736
vt 0.007085 0.143391
vt 0.016309 0.541469
vt 0.007085 0.521064
vt 0.233748 0.541469
vt 0.215539 0.131095
vt 0.215539 0.533360
vt 0.034518 0.131095
vt 0.219188 0.101718
vt 0.034518 0.533360
vt 0.030869 0.101719
vt 0.210005 0.081267
vt 0.296075 0.621723
vt 0.534702 0.395119
vt 0.534702 0.621723
vt 0.534702 0.697258
vt 0.534702 0.319584
vt 0.296075 0.395119
vt 0.296075 0.319584
vt 0.296075 0.923862
vt 0.296075 0.697258
vt 0.265324 0.805258
vt 0.122148 0.909894
vt 0.108759 0.605489
vt 0.122148 0.662596
vt 0.857249 0.567379
vt 0.774181 0.319584
vt 0.774181 0.567379
vt 0.773755 0.319584
vt 0.620899 0.070257
vt 0.774181 0.966243
vt 0.278713 0.605489
vt 0.265324 0.662597
vt 0.210006 0.583187
vt 0.196617 0.583187
vt 0.040051 0.583187
vt 0.016309 0.122986
vt 0.040051 0.081267
vt 0.534702 0.923862
vn 1.0000 -0.0000 0.0000
vn -0.0000 0.0000 1.0000
vn 0.0000 -1.0000 -0.0000
vn 0.0000 0.0000 -1.0000
vn -1.0000 -0.0000 -0.0000
vn -0.0000 1.0000 0.0000
vn -0.0943 -0.9955 0.0000
vn -0.0000 -0.9977 0.0673
vn 0.0943 -0.9955 0.0000
vn 0.9797 0.2004 0.0000
vn -0.0000 0.2760 0.9611
vn 0.0000 0.2760 -0.9611
vn -0.9797 0.2004 -0.0000
vn 0.0000 -0.9977 -0.0673
usemtl nightstand_material
s off
f 5/1/1 2/2/1 1/3/1
f 20/4/2 7/5/2 18/6/2
f 15/7/3 18/8/3 16/9/3
f 15/10/4 14/11/4 13/12/4
f 26/13/4 25/14/4 1/15/4
f 5/1/1 6/16/1 2/2/1
f 12/17/4 9/18/4 11/19/4
f 3/20/3 1/3/3 2/2/3
f 15/7/5 23/21/5 17/22/5
f 18/23/1 26/24/1 16/25/1
f 26/24/6 24/26/6 23/21/6
f 3/27/5 8/28/5 4/29/5
f 6/30/2 21/31/2 19/32/2
f 5/33/7 28/34/7 6/35/7
f 10/36/8 29/37/8 27/38/8
f 7/39/9 29/40/9 8/41/9
f 27/42/10 33/43/10 28/34/10
f 32/44/6 34/45/6 33/43/6
f 34/45/11 28/46/11 33/43/11
f 29/37/12 32/44/12 27/38/12
f 29/40/13 34/45/13 31/47/13
f 30/48/14 6/49/14 28/46/14
f 13/50/6 20/51/6 19/52/6
f 21/53/5 13/50/5 19/52/5
f 22/54/1 14/55/1 12/56/1
f 21/53/3 12/57/3 11/58/3
f 17/59/2 19/32/2 20/4/2
f 20/4/2 22/60/2 7/5/2
f 7/5/2 3/61/2 18/6/2
f 3/61/2 24/62/2 18/6/2
f 18/6/2 17/59/2 20/4/2
f 15/7/3 17/22/3 18/8/3
f 15/10/4 16/63/4 14/11/4
f 9/18/4 5/64/4 11/19/4
f 5/64/4 1/15/4 15/10/4
f 11/19/4 5/64/4 13/12/4
f 4/29/4 8/28/4 16/63/4
f 8/28/4 10/65/4 12/17/4
f 12/17/4 14/11/4 8/28/4
f 14/11/4 16/63/4 8/28/4
f 13/12/4 5/64/4 15/10/4
f 25/14/4 15/10/4 1/15/4
f 4/29/4 16/63/4 26/13/4
f 4/29/4 26/13/4 1/15/4
f 12/17/4 10/65/4 9/18/4
f 3/20/3 4/66/3 1/3/3
f 15/7/5 25/67/5 23/21/5
f 18/23/1 24/26/1 26/24/1
f 26/24/6 23/21/6 25/67/6
f 3/27/5 7/68/5 8/28/5
f 6/30/2 7/5/2 21/31/2
f 7/5/2 22/60/2 21/31/2
f 24/62/2 3/61/2 2/69/2
f 19/32/2 17/59/2 6/30/2
f 17/59/2 23/70/2 2/69/2
f 23/70/2 24/62/2 2/69/2
f 2/69/2 6/30/2 17/59/2
f 5/33/7 27/42/7 28/34/7
f 27/38/8 5/71/8 9/72/8
f 10/36/8 8/73/8 29/37/8
f 27/38/8 9/72/8 10/36/8
f 7/39/9 30/74/9 29/40/9
f 27/42/10 32/44/10 33/43/10
f 32/44/6 31/47/6 34/45/6
f 34/45/11 30/48/11 28/46/11
f 29/37/12 31/47/12 32/44/12
f 29/40/13 30/74/13 34/45/13
f 30/48/14 7/75/14 6/49/14
f 13/50/6 14/55/6 20/51/6
f 21/53/5 11/58/5 13/50/5
f 22/54/1 20/51/1 14/55/1
f 21/53/3 22/76/3 12/57/3
